<?xml version="1.0" encoding="utf-8"?>
<!-- Generator: Adobe Illustrator 15.1.0, SVG Export Plug-In  -->
<!DOCTYPE svg PUBLIC "-//W3C//DTD SVG 1.1//EN" "http://www.w3.org/Graphics/SVG/1.1/DTD/svg11.dtd" [
	<!ENTITY ns_flows "http://ns.adobe.com/Flows/1.0/">
]>
<svg version="1.1"
	 xmlns="http://www.w3.org/2000/svg" xmlns:xlink="http://www.w3.org/1999/xlink" xmlns:a="http://ns.adobe.com/AdobeSVGViewerExtensions/3.0/"
	 x="0px" y="0px" width="171px" height="35px" viewBox="-0.375 -0.75 171 35"
	 overflow="visible" enable-background="new -0.375 -0.75 171 35" xml:space="preserve">
<defs>
</defs>
<path fill-rule="evenodd" clip-rule="evenodd" fill="#152E60" d="M31.86,8.29c0-2.29-0.64-4.66-2.83-6.23
	C26.75,0.41,23.24,0,18.41,0c-0.68,0-2.87,0.03-4.46,0.07c-3.51,0.07-5.34,0.07-6.89,0C6.34,0.03,5.74,0,5.38,0
	c0.23,0.48,0.45,0.89,0.45,1.95c0,1.03-0.22,2.23-0.63,4.15c-1.1,5.11-2.24,10.21-3.79,15.25C0.82,23.23,0.55,23.65,0,24.3
	c1.55-0.07,4.33-0.24,6.88-0.14c2.83,0.1,4.15,0.14,5.15,0.14c2.87-0.04,6.89-0.38,9.76-1.41C28.99,20.29,31.86,13.12,31.86,8.29z
	 M24.11,8.7c0,1.72-0.77,7.54-4.28,10.15c-2.15,1.61-4.83,2.02-7.75,2.02c-2.74,0-2.6-0.51-2.1-3.05
	c1.46-7.26,2.46-10.69,3.51-14.46c1.28-0.1,2.37-0.17,3.51-0.17C23.84,3.19,24.11,6.92,24.11,8.7z"/>
<path fill-rule="evenodd" clip-rule="evenodd" fill="#152E60" d="M54.15,6.24c-1.19-0.45-3.24-1.17-6.84-1.17
	c-2.19,0-5.38,0.38-7.93,1.37c-6.75,2.74-8.25,9.8-8.25,12.03c0,4.94,4.19,6.07,7.15,6.07c4.61,0,6.84-2.57,8.21-4.22
	c-0.37,1.71-0.46,2.13-0.73,4.08c1.28-0.14,2.55-0.24,3.87-0.24c0.82,0,1.42,0.03,2.01,0.07c0.59,0.07,1.18,0.1,1.82,0.17
	c-0.18-0.65-0.27-0.99-0.27-1.92c0-1.2,0-2.36,1.73-7.98c1.73-5.69,2.05-6.41,3.33-9.02L54.15,6.24z M38.28,17.34
	c0-1.85,1.33-6.2,3.92-8.12c1.69-1.27,3.47-1.41,4.61-1.41c1.23,0,2,0.17,2.92,0.41c-1.28,4.94-2.6,9.77-4.88,11.48
	c-0.78,0.55-1.78,0.96-3.01,0.96C39.47,20.66,38.28,19.26,38.28,17.34z"/>
<path fill-rule="evenodd" clip-rule="evenodd" fill="#152E60" d="M65.86,17.89c-0.68,2.81,1.14,3.05,2.19,3.05
	c1.09,0,1.87-0.21,2.64-0.45c-0.55,1.51-0.73,2.02-1.23,3.7c-1.37,0.18-2.28,0.28-4.01,0.28c-6.02,0-7.89-1.1-7.25-4.18
	c0.32-1.51,0.82-3.77,2.46-10.11c-1.45,0-1.96,0-3.28,0.03c0.28-1.2,0.41-1.78,0.73-3.12c0.96,0.04,1.6,0.04,3.28,0.04
	c0.55-2.26,1.19-4.8,1.1-5.45c3.92-0.58,4.87-0.79,8.2-1.61c-0.36,0.62-1.59,4.73-2.1,7.06c1.92,0,2.51,0,4.15-0.04
	c-0.45,1.34-0.5,1.61-0.91,3.12c-1.73-0.03-2.1-0.03-4.06-0.03C67.32,11.99,66.5,15.35,65.86,17.89z"/>
<path fill-rule="evenodd" clip-rule="evenodd" fill="#152E60" d="M94.07,6.24c-1.18-0.45-3.23-1.17-6.84-1.17
	c-2.18,0-5.37,0.38-7.93,1.37c-6.74,2.74-8.25,9.8-8.25,12.03c0,4.94,4.2,6.07,7.16,6.07c4.6,0,6.84-2.57,8.2-4.22
	c-0.36,1.71-0.45,2.13-0.72,4.08c1.27-0.14,2.55-0.24,3.87-0.24c0.82,0,1.41,0.03,2,0.07c0.6,0.07,1.19,0.1,1.83,0.17
	c-0.18-0.65-0.28-0.99-0.28-1.92c0-1.2,0-2.36,1.74-7.98c1.73-5.69,2.05-6.41,3.32-9.02L94.07,6.24z M78.21,17.34
	c0-1.85,1.32-6.2,3.92-8.12c1.69-1.27,3.46-1.41,4.6-1.41c1.23,0,2.01,0.17,2.92,0.41c-1.28,4.94-2.6,9.77-4.88,11.48
	c-0.77,0.55-1.77,0.96-3,0.96C79.4,20.66,78.21,19.26,78.21,17.34z"/>
<path fill-rule="evenodd" clip-rule="evenodd" fill="#152E60" d="M108.97,5.18c-3.82,0.85-8.65,1.19-9.98,1.19
	c0.41,0.38,1.6,1.24,0.64,5.59c-1.82,8.16-3.55,13.36-4.28,16.07c-0.55,2.02-1.92,4.42-2.33,4.83c1.42-0.13,2.83-0.27,4.2-0.27
	c1.18,0,2.14,0.07,2.87,0.17c0.77,0.07,1.32,0.17,1.68,0.24c-0.13-0.48-0.18-1.1,0.37-3.36c0.45-1.85,1-4.01,1.32-5.21
	c1.05,0.04,2.05,0.07,3.1,0.07c1.73,0,6.15,0,9.98-2.91c4.38-3.36,5.24-8.77,5.24-10.8c0-0.78-0.04-3.08-2-4.55
	c-1.1-0.79-2.65-1.27-4.42-1.27c-4.38,0-6.61,2.78-7.84,4.32L108.97,5.18z M114.03,12.23c0,1.99-0.82,4.97-1.91,6.65
	c-0.78,1.24-2.28,2.74-5.42,2.74c-0.91,0-1.69-0.13-2.37-0.27c0.36-1.34,0.77-2.71,1.14-4.04c0.82-3.02,1.54-5.62,3.5-7.24
	c1.19-0.92,2.24-0.95,2.6-0.95C113.17,9.12,114.03,10.25,114.03,12.23z"/>
<path fill-rule="evenodd" clip-rule="evenodd" fill="#152E60" d="M145.39,6.24c-1.18-0.45-3.24-1.17-6.83-1.17
	c-2.19,0-5.38,0.38-7.94,1.37c-6.74,2.74-8.25,9.8-8.25,12.03c0,4.94,4.2,6.07,7.16,6.07c4.6,0,6.84-2.57,8.21-4.22
	c-0.37,1.71-0.46,2.13-0.73,4.08c1.27-0.14,2.55-0.24,3.87-0.24c0.82,0,1.41,0.03,2.01,0.07c0.59,0.07,1.18,0.1,1.82,0.17
	c-0.18-0.65-0.28-0.99-0.28-1.92c0-1.2,0-2.36,1.74-7.98c1.73-5.69,2.05-6.41,3.32-9.02L145.39,6.24z M129.53,17.34
	c0-1.85,1.32-6.2,3.92-8.12c1.69-1.27,3.46-1.41,4.6-1.41c1.23,0,2.01,0.17,2.92,0.41c-1.28,4.94-2.6,9.77-4.88,11.48
	c-0.77,0.55-1.77,0.96-3,0.96C130.72,20.66,129.53,19.26,129.53,17.34z"/>
<path fill-rule="evenodd" clip-rule="evenodd" fill="#152E60" d="M149.54,10.66c2.64-3.7,8.2-5.66,13.67-5.66
	c0.82,0,1.73,0.04,2.96,0.18c1.33,0.17,1.83,0.3,2.83,0.58c-1.32,1.68-1.55,2.09-2.51,3.73c-0.86-0.51-1.77-1.03-3.78-1.03
	c-1.41,0-3.05,0.21-4.65,1.34c-2.55,1.85-3.42,5.18-3.42,7.03c0,0.65,0.05,2.29,1.64,3.46c0.64,0.48,1.78,1.06,4.56,1.06
	c1.83,0,2.69-0.27,3.92-0.65c-0.77,1.71-1,2.26-1.55,3.67c-1.55,0.13-2.5,0.23-4.33,0.23c-1.96,0-4.42-0.13-6.61-0.85
	c-4.33-1.41-4.96-4.18-4.96-6.14C147.31,15.18,148.31,12.37,149.54,10.66z"/>
</svg>
